<svg width="39" height="50" viewBox="0 0 39 50" fill="none" xmlns="http://www.w3.org/2000/svg">
<path d="M2.77778 44.4444C2.77778 47.5 5.27778 50 8.33333 50H30.5556C33.6111 50 36.1111 47.5 36.1111 44.4444V16.6667C36.1111 13.6111 33.6111 11.1111 30.5556 11.1111H8.33333C5.27778 11.1111 2.77778 13.6111 2.77778 16.6667V44.4444ZM36.1111 2.77778H29.1667L27.1944 0.805555C26.6944 0.305555 25.9722 0 25.25 0H13.6389C12.9167 0 12.1944 0.305555 11.6944 0.805555L9.72222 2.77778H2.77778C1.25 2.77778 0 4.02778 0 5.55556C0 7.08333 1.25 8.33333 2.77778 8.33333H36.1111C37.6389 8.33333 38.8889 7.08333 38.8889 5.55556C38.8889 4.02778 37.6389 2.77778 36.1111 2.77778Z" fill="black"/>
</svg>
