<svg width="43" height="50" viewBox="0 0 43 50" fill="none" xmlns="http://www.w3.org/2000/svg">
<path d="M12.9407 11.6667C12.9407 9.45653 13.8187 7.33691 15.3815 5.77411C16.9443 4.21131 19.0639 3.33333 21.274 3.33333C23.4842 3.33333 25.6038 4.21131 27.1666 5.77411C28.7294 7.33691 29.6074 9.45653 29.6074 11.6667V13.3333H32.9407V11.6667C32.9407 8.57247 31.7115 5.60501 29.5236 3.41709C27.3357 1.22916 24.3682 0 21.274 0C18.1799 0 15.2124 1.22916 13.0245 3.41709C10.8365 5.60501 9.60738 8.57247 9.60738 11.6667V13.3333H12.9407V11.6667ZM2.62071 21.1133C2.75688 19.8905 3.33914 18.7608 4.2561 17.9404C5.17306 17.12 6.36032 16.6665 7.59071 16.6667H34.9574C36.1872 16.6673 37.3736 17.1212 38.2899 17.9415C39.2062 18.7618 39.7879 19.8911 39.924 21.1133L42.5207 44.4467C42.5985 45.1457 42.528 45.8533 42.3138 46.5232C42.0995 47.1931 41.7463 47.8103 41.2772 48.3344C40.8082 48.8585 40.2338 49.2778 39.5917 49.5648C38.9495 49.8518 38.2541 50.0001 37.5507 50H4.99738C4.2943 49.9996 3.59921 49.851 2.95747 49.5638C2.31574 49.2766 1.74179 48.8573 1.27309 48.3332C0.804395 47.8091 0.45149 47.1921 0.237415 46.5224C0.023339 45.8527 -0.0470945 45.1454 0.0307126 44.4467L2.62071 21.1133Z" fill="black"/>
</svg>
