<svg width="57" height="50" viewBox="0 0 57 50" fill="none" xmlns="http://www.w3.org/2000/svg">
<path d="M28.9068 45.3125H23.438V33.084L39.9166 16.6064C41.4322 15.0908 40.3589 12.5 38.2154 12.5H2.4107C0.26715 12.5 -0.806093 15.0908 0.709533 16.6064L17.188 33.084V45.3125H11.7193C9.56207 45.3125 7.81305 47.0615 7.81305 49.2188C7.81305 49.6504 8.16266 50 8.5943 50H32.0318C32.4634 50 32.813 49.6504 32.813 49.2188C32.813 47.0615 31.064 45.3125 28.9068 45.3125ZM42.188 0C36.0738 0 30.9234 3.92578 28.9869 9.375H34.1177C35.7437 6.58691 38.7339 4.6875 42.188 4.6875C47.357 4.6875 51.563 8.89258 51.563 14.0625C51.563 19.2324 47.357 23.4375 42.188 23.4375C40.817 23.4375 39.523 23.125 38.3482 22.5938L34.9048 26.0371C37.0347 27.3359 39.5113 28.125 42.188 28.125C49.9546 28.125 56.2505 21.8291 56.2505 14.0625C56.2505 6.2959 49.9546 0 42.188 0Z" fill="black"/>
</svg>
