<svg width="30" height="31" viewBox="0 0 30 31" fill="none" xmlns="http://www.w3.org/2000/svg">
<path d="M18.3355 30.99C18.2326 30.9642 18.1303 30.9379 18.0042 30.9057C18.0402 30.8452 18.0704 30.7796 18.1135 30.7242C20.0567 28.2618 21.1442 25.4338 21.6094 22.3627C21.8191 20.9786 21.897 19.5746 22.0257 18.1783C22.2322 15.934 22.6228 13.7411 23.7791 11.7561C24.272 10.91 24.8215 10.2987 25.6367 9.6958C26.3683 10.1649 26.9957 10.7562 27.5259 11.4479C28.9151 13.2592 29.5514 15.3414 29.6222 17.5928C29.7425 21.4123 28.5078 24.7556 25.9147 27.5656C24.3942 29.2134 22.5578 30.3678 20.3308 30.8311C20.0567 30.8883 19.7813 30.9372 19.5066 30.99H18.3355Z" fill="#3C2415"/>
<path d="M22.0534 8.5524C21.8256 8.85353 21.5862 9.14501 21.3726 9.45451C20.1481 11.2266 19.5002 13.2245 19.0916 15.315C18.7802 16.9069 18.6843 18.5207 18.5627 20.1338C18.3536 22.9019 17.6612 25.5284 16.1054 27.8673C15.6537 28.5462 15.1183 29.1697 14.574 29.8807C14.0792 29.4438 13.6004 29.0777 13.1893 28.6472C11.8368 27.2297 11.0717 25.5104 10.7326 23.5994C10.2333 20.7862 10.6708 18.0908 11.8567 15.5119C12.7118 13.6517 13.9119 12.0418 15.5173 10.7581C17.3562 9.28786 19.4249 8.43915 21.8179 8.50993C21.8764 8.51186 21.935 8.51058 21.9929 8.51508C22.0083 8.51637 22.0225 8.5331 22.0521 8.5524H22.0534Z" fill="#3C2415"/>
<path d="M8.73151 23.3221C7.36162 22.9366 6.16095 22.3041 5.09026 21.44C2.35368 19.231 0.765016 16.3529 0.185915 12.9021C-0.141598 10.9499 -0.0476552 9.01762 0.543671 7.12396C1.13693 5.2245 2.16065 3.61396 3.79243 2.42487C3.95779 2.30455 4.05367 2.31034 4.21453 2.43646C5.596 3.51744 6.33532 5.00123 6.85137 6.62143C7.38414 8.29374 7.58489 10.0227 7.67626 11.7677C7.78436 13.8261 8.09 15.8555 8.69291 17.827C8.86342 18.3843 8.77913 18.8977 8.71478 19.4324C8.57258 20.6183 8.56744 21.8035 8.70127 22.9907C8.71221 23.0866 8.71865 23.1831 8.73087 23.3221H8.73151Z" fill="#3C2415"/>
<path d="M17.3653 7.31184C14.632 8.51251 12.618 10.4055 11.0267 12.8989C10.9611 12.2567 10.8858 11.7027 10.8498 11.1461C10.7063 8.90244 10.3569 6.70057 9.5571 4.58685C9.1099 3.4042 8.51407 2.30519 7.70591 1.32651C7.64993 1.25895 7.59588 1.18946 7.54376 1.11932C7.53346 1.10581 7.53475 1.08393 7.51416 0.98999C8.10098 1.02988 8.67365 1.02667 9.23152 1.11418C12.0884 1.56394 14.2806 3.11014 16.0295 5.33968C16.5076 5.94902 16.9027 6.624 17.3647 7.3112L17.3653 7.31184Z" fill="#3C2415"/>
</svg>
