<svg width="20" height="20" viewBox="0 0 20 20" fill="none" xmlns="http://www.w3.org/2000/svg">
<path d="M7.67857 9.28571H1.60714C1.1809 9.28571 0.772119 9.11639 0.470721 8.81499C0.169323 8.5136 0 8.10481 0 7.67857V1.60714C0 1.1809 0.169323 0.772119 0.470721 0.470721C0.772119 0.169323 1.1809 0 1.60714 0H7.67857C8.10481 0 8.5136 0.169323 8.81499 0.470721C9.11639 0.772119 9.28571 1.1809 9.28571 1.60714V7.67857C9.28571 8.10481 9.11639 8.5136 8.81499 8.81499C8.5136 9.11639 8.10481 9.28571 7.67857 9.28571ZM18.3929 9.28571H12.3214C11.8952 9.28571 11.4864 9.11639 11.185 8.81499C10.8836 8.5136 10.7143 8.10481 10.7143 7.67857V1.60714C10.7143 1.1809 10.8836 0.772119 11.185 0.470721C11.4864 0.169323 11.8952 0 12.3214 0H18.3929C18.8191 0 19.2279 0.169323 19.5293 0.470721C19.8307 0.772119 20 1.1809 20 1.60714V7.67857C20 8.10481 19.8307 8.5136 19.5293 8.81499C19.2279 9.11639 18.8191 9.28571 18.3929 9.28571ZM7.67857 20H1.60714C1.1809 20 0.772119 19.8307 0.470721 19.5293C0.169323 19.2279 0 18.8191 0 18.3929V12.3214C0 11.8952 0.169323 11.4864 0.470721 11.185C0.772119 10.8836 1.1809 10.7143 1.60714 10.7143H7.67857C8.10481 10.7143 8.5136 10.8836 8.81499 11.185C9.11639 11.4864 9.28571 11.8952 9.28571 12.3214V18.3929C9.28571 18.8191 9.11639 19.2279 8.81499 19.5293C8.5136 19.8307 8.10481 20 7.67857 20ZM18.3929 20H12.3214C11.8952 20 11.4864 19.8307 11.185 19.5293C10.8836 19.2279 10.7143 18.8191 10.7143 18.3929V12.3214C10.7143 11.8952 10.8836 11.4864 11.185 11.185C11.4864 10.8836 11.8952 10.7143 12.3214 10.7143H18.3929C18.8191 10.7143 19.2279 10.8836 19.5293 11.185C19.8307 11.4864 20 11.8952 20 12.3214V18.3929C20 18.8191 19.8307 19.2279 19.5293 19.5293C19.2279 19.8307 18.8191 20 18.3929 20Z" fill="black"/>
</svg>
