<svg width="50" height="50" viewBox="0 0 50 50" fill="none" xmlns="http://www.w3.org/2000/svg">
<path fill-rule="evenodd" clip-rule="evenodd" d="M45.3124 0H4.6875C2.10938 0 0 2.10938 0 4.6875V45.3125C0 47.8906 2.10938 50 4.6875 50H45.3124C47.8905 50 49.9999 47.8906 49.9999 45.3125V4.6875C49.9999 2.10938 47.8905 0 45.3124 0ZM17.582 7.60531H32.4189C37.9905 7.60531 42.5461 12.1046 42.5461 17.6014V32.3986C42.5461 37.8962 37.9905 42.3947 32.4189 42.3947H17.582C12.0114 42.3947 7.45484 37.8962 7.45484 32.3986V17.6014C7.45484 12.1045 12.0114 7.60531 17.582 7.60531ZM24.9059 15.6073C30.3196 15.6073 34.7137 20.0005 34.7137 25.4152C34.7137 30.8299 30.3196 35.2222 24.9059 35.2222C19.4903 35.2222 15.098 30.8299 15.098 25.4152C15.098 20.0005 19.4902 15.6073 24.9059 15.6073ZM24.9059 18.92C28.4908 18.92 31.4011 21.8285 31.4011 25.4152C31.4011 29.001 28.4908 31.9104 24.9059 31.9104C21.3191 31.9104 18.4098 29.001 18.4098 25.4152C18.4098 21.8285 21.3191 18.92 24.9059 18.92ZM34.3945 14.2481C35.2738 14.2481 35.9862 14.9605 35.9862 15.8398C35.9862 16.7192 35.2738 17.4325 34.3945 17.4325C33.5151 17.4325 32.8018 16.7192 32.8018 15.8398C32.8018 14.9605 33.5151 14.2481 34.3945 14.2481ZM18.7937 10.4473H31.2073C35.8681 10.4473 39.68 14.2398 39.68 18.8747V31.3503C39.68 35.9852 35.8681 39.7777 31.2073 39.7777H18.7936C14.1337 39.7777 10.3209 35.9852 10.3209 31.3503V18.8748C10.3209 14.2398 14.1337 10.4473 18.7936 10.4473H18.7937Z" fill="black"/>
</svg>
