<svg width="50" height="50" viewBox="0 0 50 50" fill="none" xmlns="http://www.w3.org/2000/svg">
<path fill-rule="evenodd" clip-rule="evenodd" d="M0 25C0 11.1925 11.1925 0 25 0C38.8075 0 50 11.1925 50 25C50 38.8075 38.8075 50 25 50C11.1925 50 0 38.8075 0 25ZM25 15C25 14.337 24.7366 13.7011 24.2678 13.2322C23.7989 12.7634 23.163 12.5 22.5 12.5C21.837 12.5 21.2011 12.7634 20.7322 13.2322C20.2634 13.7011 20 14.337 20 15V27.5C20 28.163 20.2634 28.7989 20.7322 29.2678C21.2011 29.7366 21.837 30 22.5 30H35C35.663 30 36.2989 29.7366 36.7678 29.2678C37.2366 28.7989 37.5 28.163 37.5 27.5C37.5 26.837 37.2366 26.2011 36.7678 25.7322C36.2989 25.2634 35.663 25 35 25H25V15Z" fill="black"/>
</svg>
