<svg width="50" height="50" viewBox="0 0 50 50" fill="none" xmlns="http://www.w3.org/2000/svg">
<path d="M49.9705 37.7699C49.5247 41.1575 47.8611 44.267 45.2902 46.5176C42.7194 48.7682 39.4172 50.0061 36.0004 50C16.1502 50 2.26218e-05 33.8498 2.26218e-05 13.9996C-0.00610239 10.5828 1.23175 7.28062 3.48239 4.70978C5.73303 2.13894 8.84253 0.475266 12.2301 0.0294944C13.0868 -0.0751043 13.9543 0.10015 14.7031 0.529095C15.452 0.958041 16.042 1.61767 16.3852 2.40952L21.6652 14.1971V14.2271C21.928 14.8333 22.0365 15.495 21.9811 16.1533C21.9256 16.8116 21.7081 17.446 21.3477 17.9997C21.3027 18.0672 21.2552 18.1297 21.2052 18.1922L16.0002 24.3622C17.8727 28.1673 21.8527 32.1123 25.7078 33.9898L31.7928 28.8123C31.8526 28.762 31.9152 28.7153 31.9803 28.6723C32.5336 28.3033 33.1701 28.078 33.8323 28.0169C34.4945 27.9558 35.1614 28.0608 35.7729 28.3223L35.8054 28.3373L47.583 33.6148C48.3762 33.9568 49.0375 34.5463 49.4678 35.2952C49.8982 36.0442 50.0745 36.9123 49.9705 37.7699Z" fill="black"/>
</svg>
