<svg width="47" height="50" viewBox="0 0 47 50" fill="none" xmlns="http://www.w3.org/2000/svg">
<path d="M7.95536 28.75C7.24702 28.75 6.74702 28.5517 6.45536 28.155C6.16369 27.7583 6.05952 27.2275 6.14286 26.5625C6.18452 26.1875 6.21619 25.885 6.23786 25.655C6.25952 25.425 6.26952 25.2067 6.26786 25C6.26786 23.75 5.85119 22.1667 5.01786 20.25C4.18452 18.3333 3.76786 16.8958 3.76786 15.9375C3.76786 15.5625 3.78869 15.1767 3.83036 14.78C3.87202 14.3833 3.99702 13.9983 4.20536 13.625C4.37202 13.2917 4.60119 13.0208 4.89286 12.8125C5.18452 12.6042 5.49702 12.5 5.83036 12.5C6.49702 12.5 7.00786 12.6975 7.36286 13.0925C7.71786 13.4875 7.81119 14.0192 7.64286 14.6875C7.55952 15.0625 7.51786 15.4792 7.51786 15.9375C7.51786 16.8958 7.93452 18.3333 8.76786 20.25C9.60119 22.1667 10.0179 23.75 10.0179 25C10.0179 25.625 9.97619 26.1458 9.89286 26.5625C9.80952 26.9792 9.70536 27.3333 9.58036 27.625C9.41369 27.9583 9.18452 28.2292 8.89286 28.4375C8.60119 28.6458 8.28869 28.75 7.95536 28.75ZM24.2054 28.75C23.497 28.75 22.997 28.5517 22.7054 28.155C22.4137 27.7583 22.3095 27.2275 22.3929 26.5625C22.4345 26.1875 22.4662 25.885 22.4879 25.655C22.5095 25.425 22.5195 25.2067 22.5179 25C22.5179 23.75 22.1012 22.1667 21.2679 20.25C20.4345 18.3333 20.0179 16.8958 20.0179 15.9375C20.0179 15.5625 20.0387 15.1767 20.0804 14.78C20.122 14.3833 20.247 13.9983 20.4554 13.625C20.622 13.2917 20.8512 13.0208 21.1429 12.8125C21.4345 12.6042 21.747 12.5 22.0804 12.5C22.747 12.5 23.2579 12.6975 23.6129 13.0925C23.9679 13.4875 24.0612 14.0192 23.8929 14.6875C23.8095 15.0625 23.7679 15.4792 23.7679 15.9375C23.7679 16.8958 24.1845 18.3333 25.0179 20.25C25.8512 22.1667 26.2679 23.75 26.2679 25C26.2679 25.625 26.2262 26.1458 26.1429 26.5625C26.0595 26.9792 25.9554 27.3333 25.8304 27.625C25.6637 27.9583 25.4345 28.2292 25.1429 28.4375C24.8512 28.6458 24.5387 28.75 24.2054 28.75ZM16.0804 28.75C15.372 28.75 14.872 28.5517 14.5804 28.155C14.2887 27.7583 14.1845 27.2275 14.2679 26.5625C14.3095 26.1875 14.3412 25.885 14.3629 25.655C14.3845 25.425 14.3945 25.2067 14.3929 25C14.3929 23.75 13.9762 22.1667 13.1429 20.25C12.3095 18.3333 11.8929 16.8958 11.8929 15.9375C11.8929 15.5625 11.9137 15.1767 11.9554 14.78C11.997 14.3833 12.122 13.9983 12.3304 13.625C12.497 13.2917 12.7262 13.0208 13.0179 12.8125C13.3095 12.6042 13.622 12.5 13.9554 12.5C14.622 12.5 15.1329 12.6975 15.4879 13.0925C15.8429 13.4875 15.9362 14.0192 15.7679 14.6875C15.6845 15.0625 15.6429 15.4792 15.6429 15.9375C15.6429 16.8958 16.0595 18.3333 16.8929 20.25C17.7262 22.1667 18.1429 23.75 18.1429 25C18.1429 25.625 18.1012 26.1458 18.0179 26.5625C17.9345 26.9792 17.8304 27.3333 17.7054 27.625C17.5387 27.9583 17.3095 28.2292 17.0179 28.4375C16.7262 28.6458 16.4137 28.75 16.0804 28.75ZM16.8929 50C12.6845 50 8.98619 48.5933 5.79786 45.78C2.60952 42.9667 0.682857 39.4775 0.0178571 35.3125C-0.0654762 34.5625 0.142857 33.9058 0.642857 33.3425C1.14286 32.7792 1.76786 32.4983 2.51786 32.5H28.8304L31.5804 6.625C31.7887 4.75 32.5912 3.17667 33.9879 1.905C35.3845 0.633337 37.0612 -0.00166339 39.0179 3.27225e-06C41.1012 3.27225e-06 42.872 0.72917 44.3304 2.1875C45.7887 3.64584 46.5179 5.41667 46.5179 7.5L46.3929 8.6875C46.3095 9.39583 46.007 9.96917 45.4854 10.4075C44.9637 10.8458 44.3495 11.0225 43.6429 10.9375C42.9762 10.8542 42.4245 10.5517 41.9879 10.03C41.5512 9.50834 41.3737 8.915 41.4554 8.25L41.5179 7.5C41.5179 6.79167 41.2779 6.19834 40.7979 5.72C40.3179 5.24167 39.7245 5.00167 39.0179 5C38.3512 5 37.7887 5.21917 37.3304 5.6575C36.872 6.09584 36.6012 6.62667 36.5179 7.25L33.6429 34.4375C33.1845 38.8542 31.372 42.5525 28.2054 45.5325C25.0387 48.5125 21.2679 50.0017 16.8929 50Z" fill="black"/>
</svg>
