<svg width="36" height="50" viewBox="0 0 36 50" fill="none" xmlns="http://www.w3.org/2000/svg">
<path d="M32.3529 14.7059C32.3529 10.6441 30.7059 6.96765 28.0471 4.30882C25.3853 1.64706 21.7088 0 17.6471 0C13.5853 0 9.90882 1.64706 7.24706 4.30882C4.58823 6.96765 2.94118 10.6441 2.94118 14.7059C2.94118 18.7676 4.58823 22.4441 7.24706 25.1029C9.90882 27.7647 13.5853 29.4118 17.6471 29.4118C21.7088 29.4118 25.3853 27.7647 28.0471 25.1029C29.4143 23.739 30.4985 22.1183 31.2374 20.3341C31.9764 18.5498 32.3555 16.6371 32.3529 14.7059ZM0 44.1176C0 47.0588 6.61765 50 17.6471 50C27.9941 50 35.2941 47.0588 35.2941 44.1176C35.2941 38.2353 28.3706 32.3529 17.6471 32.3529C6.61765 32.3529 0 38.2353 0 44.1176Z" fill="black"/>
</svg>
