<svg width="50" height="50" viewBox="0 0 50 50" fill="none" xmlns="http://www.w3.org/2000/svg">
<path fill-rule="evenodd" clip-rule="evenodd" d="M45.3059 0H4.69406C2.11458 0 0 2.11585 0 4.68187V45.3181C0 47.8992 2.11458 50 4.69406 50H45.3059C47.8854 50 50 47.8842 50 45.3181V4.68187C50 2.10084 47.8854 0 45.3059 0ZM38.6923 19.4178C38.6923 19.4178 38.4223 17.482 37.5825 16.6417C36.5177 15.5312 35.3179 15.5162 34.778 15.4562C30.8638 15.1711 25 15.1711 25 15.1711H24.985C24.985 15.1711 19.1062 15.1711 15.207 15.4562C14.6671 15.5162 13.4673 15.5312 12.4025 16.6417C11.5627 17.482 11.2927 19.4178 11.2927 19.4178C11.2927 19.4178 11.0078 21.6837 11.0078 23.9496V26.0654C11.0078 28.3313 11.2927 30.5972 11.2927 30.5972C11.2927 30.5972 11.5627 32.533 12.4025 33.3733C13.4673 34.4838 14.862 34.4538 15.4919 34.5738C17.7265 34.7839 25 34.8589 25 34.8589C25 34.8589 30.8788 34.8439 34.793 34.5738C35.3329 34.5138 36.5327 34.4988 37.5975 33.3884C38.4373 32.548 38.7073 30.6122 38.7073 30.6122C38.7073 30.6122 38.9922 28.3463 38.9922 26.0804V23.9646C38.9922 21.6987 38.7073 19.4328 38.7073 19.4328L38.6923 19.4178ZM22.0906 28.6465V20.7833L29.6491 24.7299L22.0906 28.6465Z" fill="black"/>
</svg>
