<svg width="50" height="50" viewBox="0 0 50 50" fill="none" xmlns="http://www.w3.org/2000/svg">
<path d="M25 0C20.0555 0 15.222 1.46622 11.1108 4.21326C6.99952 6.96029 3.79521 10.8648 1.90302 15.4329C0.0108321 20.0011 -0.484251 25.0277 0.480379 29.8773C1.44501 34.7268 3.82603 39.1814 7.32234 42.6777C10.8187 46.174 15.2732 48.555 20.1227 49.5196C24.9723 50.4843 29.9989 49.9892 34.5671 48.097C39.1352 46.2048 43.0397 43.0005 45.7867 38.8892C48.5338 34.778 50 29.9445 50 25C49.9926 18.3718 47.3564 12.0173 42.6696 7.33045C37.9827 2.64363 31.6282 0.00735237 25 0ZM25 44.4444C21.1543 44.4444 17.3949 43.304 14.1973 41.1675C10.9996 39.0309 8.50739 35.9941 7.03569 32.4411C5.56398 28.8881 5.17892 24.9784 5.92919 21.2066C6.67945 17.4347 8.53136 13.9701 11.2507 11.2507C13.9701 8.53134 17.4347 6.67944 21.2066 5.92917C24.9784 5.17891 28.8881 5.56397 32.4411 7.03567C35.9941 8.50738 39.0309 10.9996 41.1675 14.1972C43.304 17.3949 44.4444 21.1542 44.4444 25C44.4389 30.1553 42.3886 35.0979 38.7432 38.7432C35.0979 42.3885 30.1553 44.4389 25 44.4444ZM34.6273 32.2245C33.111 34.2448 30.9975 35.7368 28.5862 36.4893C26.1749 37.2418 23.588 37.2167 21.1918 36.4175C18.7956 35.6183 16.7115 34.0855 15.2347 32.0361C13.7579 29.9868 12.9633 27.5248 12.9633 24.9988C12.9633 22.4728 13.7579 20.0109 15.2347 17.9615C16.7115 15.9122 18.7956 14.3794 21.1918 13.5802C23.588 12.781 26.1749 12.7558 28.5862 13.5084C30.9975 14.2609 33.111 15.7529 34.6273 17.7731C34.8544 18.064 35.0213 18.3973 35.1182 18.7534C35.2151 19.1094 35.24 19.4813 35.1916 19.8471C35.1431 20.213 35.0223 20.5655 34.8361 20.8841C34.6499 21.2028 34.4021 21.4811 34.1071 21.7029C33.8121 21.9246 33.4759 22.0854 33.1181 22.1758C32.7603 22.2661 32.3881 22.2843 32.0232 22.2292C31.6583 22.1741 31.308 22.0469 30.9928 21.8549C30.6776 21.6629 30.4039 21.4101 30.1875 21.1111C29.3713 20.0228 28.2334 19.2189 26.9349 18.8133C25.6364 18.4077 24.2432 18.4209 22.9527 18.8511C21.6622 19.2813 20.5397 20.1066 19.7443 21.2102C18.9489 22.3138 18.5208 23.6396 18.5208 25C18.5208 26.3603 18.9489 27.6862 19.7443 28.7898C20.5397 29.8934 21.6622 30.7187 22.9527 31.1489C24.2432 31.579 25.6364 31.5923 26.9349 31.1867C28.2334 30.781 29.3713 29.9772 30.1875 28.8889C30.402 28.5855 30.6752 28.3283 30.9909 28.1324C31.3065 27.9365 31.6583 27.8059 32.0254 27.7484C32.3924 27.6908 32.7673 27.7075 33.1278 27.7974C33.4882 27.8873 33.827 28.0486 34.1241 28.2718C34.4211 28.495 34.6704 28.7754 34.8571 29.0967C35.0438 29.4179 35.1642 29.7733 35.2111 30.1418C35.258 30.5104 35.2305 30.8846 35.1302 31.2423C35.03 31.6001 34.859 31.9341 34.6273 32.2245Z" fill="black"/>
</svg>
