<svg width="52" height="50" viewBox="0 0 52 50" fill="none" xmlns="http://www.w3.org/2000/svg">
<path d="M11.4231 41.0256L0 50V2.5641C0 1.88406 0.270146 1.23187 0.751008 0.751008C1.23187 0.270146 1.88406 0 2.5641 0H48.718C49.398 0 50.0502 0.270146 50.531 0.751008C51.0119 1.23187 51.2821 1.88406 51.2821 2.5641V38.4615C51.2821 39.1416 51.0119 39.7938 50.531 40.2746C50.0502 40.7555 49.398 41.0256 48.718 41.0256H11.4231ZM23.8282 23.3872L17.4821 17.041L13.8564 20.6692L23.8282 30.641L38.3333 16.1359L34.7077 12.5103L23.8282 23.3872Z" fill="black"/>
</svg>
