<svg width="43" height="50" viewBox="0 0 43 50" fill="none" xmlns="http://www.w3.org/2000/svg">
<path d="M25.5848 48.4238C31.8165 42.9393 42.9035 31.7343 42.9035 21.4518C42.9035 15.7624 40.6434 10.3061 36.6204 6.28307C32.5974 2.26009 27.1411 0 21.4518 0C15.7624 0 10.3061 2.26009 6.28307 6.28307C2.26009 10.3061 8.4778e-08 15.7624 0 21.4518C0 31.7343 11.0834 42.9393 17.3187 48.4238C18.4561 49.4389 19.9272 50 21.4518 50C22.9763 50 24.4474 49.4389 25.5848 48.4238ZM14.3012 21.4518C14.3012 19.5553 15.0545 17.7365 16.3955 16.3955C17.7365 15.0545 19.5553 14.3012 21.4518 14.3012C23.3482 14.3012 25.167 15.0545 26.508 16.3955C27.849 17.7365 28.6023 19.5553 28.6023 21.4518C28.6023 23.3482 27.849 25.167 26.508 26.508C25.167 27.849 23.3482 28.6023 21.4518 28.6023C19.5553 28.6023 17.7365 27.849 16.3955 26.508C15.0545 25.167 14.3012 23.3482 14.3012 21.4518Z" fill="black"/>
</svg>
