<svg width="50" height="50" viewBox="0 0 50 50" fill="none" xmlns="http://www.w3.org/2000/svg">
<path d="M44.0476 0H5.95238C2.66667 0 0 2.66667 0 5.95238V44.0476C0 47.3333 2.66667 50 5.95238 50H44.0476C47.3333 50 50 47.3333 50 44.0476V5.95238C50 2.66667 47.3333 0 44.0476 0ZM39.2857 17.8571H36.9048C34.3571 17.8571 33.3333 18.4524 33.3333 20.2381V23.8095H39.2857L38.0952 29.7619H33.3333V47.619H27.381V29.7619H22.619V23.8095H27.381V20.2381C27.381 15.4762 29.7619 11.9048 34.5238 11.9048C37.9762 11.9048 39.2857 13.0952 39.2857 13.0952V17.8571Z" fill="black"/>
</svg>
