<svg width="50" height="50" viewBox="0 0 50 50" fill="none" xmlns="http://www.w3.org/2000/svg">
<path d="M5.95238 0C2.66667 0 0 2.66667 0 5.95238V44.0476C0 47.3333 2.66667 50 5.95238 50H44.0476C47.3333 50 50 47.3333 50 44.0476V5.95238C50 2.66667 47.3333 0 44.0476 0H5.95238ZM25 8.33333C34.8452 8.33333 42.8571 14.7134 42.8571 22.5586C42.8571 25.6895 41.6182 28.5247 39.023 31.3105C37.1539 33.4295 34.1197 35.7621 31.3221 37.6907C28.5245 39.5954 25.9524 41.0948 25 41.4876C24.619 41.6424 24.3333 41.7132 24.1071 41.7132C23.3214 41.7132 23.3919 40.8819 23.4515 40.5366C23.4991 40.2747 23.7142 39.0346 23.7142 39.0346C23.7737 38.5941 23.8323 37.894 23.6537 37.4535C23.4514 36.9654 22.6536 36.7146 22.0703 36.5955C13.4989 35.4765 7.14286 29.5824 7.14286 22.5586C7.14286 14.7134 15.1548 8.33333 25 8.33333ZM23.8002 17.8548C23.2005 17.8659 22.619 18.3237 22.619 19.0476V26.1905C22.619 26.8476 23.1524 27.381 23.8095 27.381C24.4667 27.381 25 26.8476 25 26.1905V22.7632L27.6018 26.881C28.2757 27.8239 29.7619 27.3488 29.7619 26.1905V19.0476C29.7619 18.3905 29.2286 17.8571 28.5714 17.8571C27.9143 17.8571 27.381 18.3905 27.381 19.0476V22.619L24.7791 18.357C24.5264 18.0035 24.1601 17.8481 23.8002 17.8548ZM13.0952 17.8571C12.4381 17.8571 11.9048 18.3905 11.9048 19.0476V26.1905C11.9048 26.8476 12.4381 27.381 13.0952 27.381H16.6667C17.3238 27.381 17.8571 26.8476 17.8571 26.1905C17.8571 25.5333 17.3238 25 16.6667 25H14.2857V19.0476C14.2857 18.3905 13.7524 17.8571 13.0952 17.8571ZM20.2381 17.8571C19.581 17.8571 19.0476 18.3905 19.0476 19.0476V26.1905C19.0476 26.8476 19.581 27.381 20.2381 27.381C20.8952 27.381 21.4286 26.8476 21.4286 26.1905V19.0476C21.4286 18.3905 20.8952 17.8571 20.2381 17.8571ZM32.1429 17.8571C31.4857 17.8571 30.9524 18.3905 30.9524 19.0476V26.1905C30.9524 26.8476 31.4857 27.381 32.1429 27.381H35.7143C36.3714 27.381 36.9048 26.8476 36.9048 26.1905C36.9048 25.5333 36.3714 25 35.7143 25H33.3333V23.8095H35.7143C36.3726 23.8095 36.9048 23.2762 36.9048 22.619C36.9048 21.9619 36.3726 21.4286 35.7143 21.4286H33.3333V20.2381H35.7143C36.3714 20.2381 36.9048 19.7048 36.9048 19.0476C36.9048 18.3905 36.3714 17.8571 35.7143 17.8571H32.1429Z" fill="black"/>
</svg>
