<svg width="50" height="50" viewBox="0 0 50 50" fill="none" xmlns="http://www.w3.org/2000/svg">
<path fill-rule="evenodd" clip-rule="evenodd" d="M45.3124 0H4.6875C2.10938 0 0 2.10938 0 4.6875V45.3125C0 47.8906 2.10938 50 4.6875 50H45.3124C47.8905 50 49.9999 47.8906 49.9999 45.3125V4.6875C49.9999 2.10938 47.8905 0 45.3124 0ZM40.6295 15.3074C39.4614 15.8266 38.2212 16.1651 36.9514 16.3113C38.2728 15.5234 39.2869 14.2629 39.7713 12.7634C38.5321 13.497 37.1562 14.0359 35.702 14.3228C34.5264 13.0791 32.8627 12.3048 31.0191 12.3048C27.4776 12.3048 24.6097 15.1709 24.6097 18.7123C24.6097 19.2088 24.6632 19.6987 24.773 20.1712C19.4459 19.8991 14.7224 17.3486 11.5583 13.4693C10.9892 14.4478 10.6893 15.5596 10.6891 16.6916C10.6891 18.9154 11.8185 20.8809 13.5395 22.0241C12.4875 21.9937 11.5029 21.703 10.6327 21.2269V21.3081C10.6327 24.4141 12.8437 27.0088 15.778 27.5956C15.2272 27.7449 14.6591 27.8206 14.0884 27.8209C13.6751 27.8209 13.2755 27.7802 12.8797 27.7055C13.6963 30.2513 16.0604 32.1079 18.8673 32.1586C16.6694 33.8805 13.9085 34.9057 10.9022 34.9057C10.3827 34.9057 9.87609 34.8752 9.37047 34.8162C12.2134 36.6413 15.5833 37.6951 19.2042 37.6951C30.996 37.6951 37.447 27.9251 37.447 19.4534C37.447 19.1719 37.4423 18.897 37.4285 18.621C38.6806 17.7259 39.7695 16.5947 40.6258 15.3102L40.6295 15.3074Z" fill="black"/>
</svg>
