<svg width="44" height="50" viewBox="0 0 44 50" fill="none" xmlns="http://www.w3.org/2000/svg">
<path d="M35.8329 20H33.3329V19.4021C34.1733 18.4517 34.7247 17.2811 34.9223 16.0279C35.1198 14.7747 34.9553 13.4912 34.4481 12.3283C33.9409 11.1655 33.112 10.1717 32.0591 9.46397C31.0062 8.75623 29.7731 8.36399 28.5048 8.33339C27.9731 6.47717 26.9851 4.78364 25.6308 3.40735C24.5725 2.32415 23.3074 1.46443 21.9107 0.879153C20.514 0.293871 19.014 -0.00506369 17.4996 6.48876e-05C14.384 6.48876e-05 11.4808 1.27923 9.27042 3.61256C8.18554 3.26689 7.02322 3.24628 5.92677 3.55327C4.83032 3.86026 3.84768 4.48142 3.10001 5.34016C2.35235 6.19891 1.87235 7.25769 1.7192 8.38596C1.56604 9.51423 1.74644 10.6627 2.23814 11.6896C1.44908 12.39 0.837768 13.2678 0.454594 14.2508C0.0714192 15.2338 -0.0726445 16.2937 0.0342782 17.3433C0.141201 18.3929 0.496048 19.4021 1.06957 20.2876C1.64309 21.1731 2.41886 21.9097 3.33293 22.4365V44.1667C3.33458 45.7133 3.9497 47.196 5.0433 48.2896C6.1369 49.3832 7.61967 49.9983 9.16625 50H27.4996C29.0462 49.9983 30.5289 49.3832 31.6225 48.2896C32.7161 47.196 33.3312 45.7133 33.3329 44.1667V43.3333H35.8329C37.8213 43.3311 39.7277 42.5403 41.1337 41.1342C42.5398 39.7282 43.3307 37.8218 43.3329 35.8334V27.5C43.3307 25.5116 42.5398 23.6052 41.1337 22.1992C39.7277 20.7931 37.8213 20.0022 35.8329 20ZM13.3329 41.6667C13.3329 42.1087 13.1573 42.5326 12.8448 42.8452C12.5322 43.1577 12.1083 43.3333 11.6663 43.3333C11.2242 43.3333 10.8003 43.1577 10.4877 42.8452C10.1752 42.5326 9.99959 42.1087 9.99959 41.6667V25C9.99959 24.558 10.1752 24.1341 10.4877 23.8215C10.8003 23.509 11.2242 23.3334 11.6663 23.3334C12.1083 23.3334 12.5322 23.509 12.8448 23.8215C13.1573 24.1341 13.3329 24.558 13.3329 25V41.6667ZM19.9996 41.6667C19.9996 42.1087 19.824 42.5326 19.5114 42.8452C19.1989 43.1577 18.7749 43.3333 18.3329 43.3333C17.8909 43.3333 17.467 43.1577 17.1544 42.8452C16.8418 42.5326 16.6662 42.1087 16.6662 41.6667V25C16.6662 24.558 16.8418 24.1341 17.1544 23.8215C17.467 23.509 17.8909 23.3334 18.3329 23.3334C18.7749 23.3334 19.1989 23.509 19.5114 23.8215C19.824 24.1341 19.9996 24.558 19.9996 25V41.6667ZM26.6662 41.6667C26.6662 42.1087 26.4906 42.5326 26.1781 42.8452C25.8655 43.1577 25.4416 43.3333 24.9996 43.3333C24.5575 43.3333 24.1336 43.1577 23.8211 42.8452C23.5085 42.5326 23.3329 42.1087 23.3329 41.6667V25C23.3329 24.558 23.5085 24.1341 23.8211 23.8215C24.1336 23.509 24.5575 23.3334 24.9996 23.3334C25.4416 23.3334 25.8655 23.509 26.1781 23.8215C26.4906 24.1341 26.6662 24.558 26.6662 25V41.6667ZM28.3329 18.3334C27.4652 18.3334 26.1923 17.7938 25.5527 17.1553C25.2403 16.8426 24.8165 16.6669 24.3746 16.6667H11.6663C11.3248 16.6675 10.9919 16.7731 10.7124 16.9693C10.4329 17.1654 10.2205 17.4427 10.1038 17.7636C9.3923 19.7094 7.64542 20 6.66626 20C5.7822 20 4.93436 19.6489 4.30924 19.0237C3.68412 18.3986 3.33293 17.5508 3.33293 16.6667C3.33293 15.7827 3.68412 14.9348 4.30924 14.3097C4.93436 13.6846 5.7822 13.3334 6.66626 13.3334C6.67563 13.3334 7.61626 13.3688 8.37459 13.9375C8.54968 14.0689 8.74893 14.1644 8.96095 14.2187C9.17297 14.2731 9.39362 14.2851 9.61029 14.2541C9.82696 14.2232 10.0354 14.1499 10.2237 14.0383C10.4121 13.9268 10.5766 13.7793 10.7079 13.6042C10.8392 13.4291 10.9348 13.2299 10.9891 13.0179C11.0434 12.8058 11.0555 12.5852 11.0245 12.3685C10.9935 12.1518 10.9202 11.9434 10.8087 11.7551C10.6972 11.5667 10.5497 11.4022 10.3746 11.2709C9.2947 10.4834 8.00216 10.0405 6.66626 10.0001C6.17559 10.0004 5.68647 10.0552 5.20793 10.1636C5.04255 9.78326 4.97439 9.36775 5.0096 8.95451C5.0448 8.54127 5.18226 8.14328 5.40959 7.7964C5.63692 7.44952 5.94697 7.16464 6.31182 6.96743C6.67667 6.77023 7.08485 6.66689 7.49959 6.66672C7.89333 6.66483 8.28184 6.75683 8.63292 6.93509C8.984 7.11334 9.28753 7.37272 9.51834 7.69172C9.70617 7.9508 9.87036 8.22621 10.009 8.51464C10.0542 8.93938 10.2608 9.33055 10.586 9.60739C10.9113 9.88424 11.3305 10.0256 11.757 10.0024C12.1835 9.97911 12.5848 9.79299 12.8781 9.48241C13.1713 9.17184 13.3341 8.76053 13.3329 8.33339C13.3329 7.62818 12.9569 6.75318 12.2121 5.72922C12.1642 5.6636 12.1079 5.59902 12.061 5.53547C13.5819 4.10839 15.4829 3.33339 17.4996 3.33339C18.5713 3.33031 19.6328 3.54243 20.621 3.9572C21.6093 4.37196 22.5042 4.98092 23.2527 5.74797C24.1889 6.70852 24.88 7.88035 25.2676 9.16439C25.6553 10.4484 25.728 11.8069 25.4798 13.125C25.4388 13.3401 25.4407 13.5611 25.4852 13.7754C25.5297 13.9898 25.6159 14.1932 25.7391 14.3742C25.8622 14.5552 26.0198 14.7101 26.2028 14.8302C26.3859 14.9503 26.5908 15.0331 26.8058 15.074C26.9089 15.0934 27.0135 15.1031 27.1183 15.1032C27.5058 15.1028 27.8811 14.9674 28.1796 14.7202C28.478 14.4731 28.6811 14.1296 28.7537 13.749C28.8806 13.0819 28.949 12.4051 28.9579 11.7261C29.7726 11.882 30.4999 12.336 30.9978 12.9994C31.4956 13.6629 31.7282 14.4882 31.6501 15.314C31.572 16.1397 31.1888 16.9067 30.5753 17.4651C29.9619 18.0235 29.1624 18.333 28.3329 18.3334ZM39.9995 35.8334C39.9995 36.9384 39.5606 37.9982 38.7792 38.7796C37.9978 39.561 36.938 40 35.8329 40H33.3329V23.3334H35.8329C36.938 23.3334 37.9978 23.7724 38.7792 24.5538C39.5606 25.3352 39.9995 26.395 39.9995 27.5V35.8334Z" fill="black"/>
</svg>
