<svg width="40" height="50" viewBox="0 0 40 50" fill="none" xmlns="http://www.w3.org/2000/svg">
<path d="M40 27.5V45C40 46.3261 39.4732 47.5979 38.5355 48.5355C37.5979 49.4732 36.3261 50 35 50C33.6739 50 32.4021 49.4732 31.4645 48.5355C30.5268 47.5979 30 46.3261 30 45V32.5H25V7.5C25 5.51088 25.7902 3.60322 27.1967 2.1967C28.6032 0.790176 30.5109 0 32.5 0L40 0V27.5ZM5 25C3.67392 25 2.40215 24.4732 1.46447 23.5355C0.526784 22.5979 0 21.3261 0 20V2.5C0 1.83696 0.263392 1.20107 0.732233 0.732233C1.20107 0.263392 1.83696 0 2.5 0C3.16304 0 3.79893 0.263392 4.26777 0.732233C4.73661 1.20107 5 1.83696 5 2.5V12.5H7.5V2.5C7.5 1.83696 7.76339 1.20107 8.23223 0.732233C8.70107 0.263392 9.33696 0 10 0C10.663 0 11.2989 0.263392 11.7678 0.732233C12.2366 1.20107 12.5 1.83696 12.5 2.5V12.5H15V2.5C15 1.83696 15.2634 1.20107 15.7322 0.732233C16.2011 0.263392 16.837 0 17.5 0C18.163 0 18.7989 0.263392 19.2678 0.732233C19.7366 1.20107 20 1.83696 20 2.5V20C20 21.3261 19.4732 22.5979 18.5355 23.5355C17.5979 24.4732 16.3261 25 15 25V45C15 46.3261 14.4732 47.5979 13.5355 48.5355C12.5979 49.4732 11.3261 50 10 50C8.67392 50 7.40215 49.4732 6.46447 48.5355C5.52678 47.5979 5 46.3261 5 45V25Z" fill="black"/>
</svg>
