<svg width="51" height="50" viewBox="0 0 51 50" fill="none" xmlns="http://www.w3.org/2000/svg">
<path fill-rule="evenodd" clip-rule="evenodd" d="M1.56192 18.7492C1.32812 18.7493 1.09731 18.8019 0.886516 18.903C0.675723 19.0042 0.490318 19.1514 0.343967 19.3337C0.197616 19.516 0.0940499 19.7289 0.0409032 19.9566C-0.0122435 20.1843 -0.0136162 20.421 0.0368863 20.6493L5.19951 43.8811C5.58487 45.6163 6.5504 47.1682 7.93671 48.2807C9.32302 49.3931 11.0472 49.9996 12.8247 50H30.9252C32.7026 49.9996 34.4268 49.3931 35.8131 48.2807C37.1995 47.1682 38.165 45.6163 38.5503 43.8811L38.9597 42.0373C41.3502 42.4844 43.8208 41.9851 45.8501 40.6449C47.8793 39.3047 49.3084 37.2284 49.8356 34.8543C50.3628 32.4803 49.9469 29.9942 48.6757 27.9211C47.4044 25.8479 45.3773 24.3498 43.0223 23.7431L43.713 20.6493C43.7635 20.421 43.7621 20.1843 43.709 19.9566C43.6558 19.7289 43.5522 19.516 43.4059 19.3337C43.2595 19.1514 43.0741 19.0042 42.8633 18.903C42.6526 18.8019 42.4217 18.7493 42.1879 18.7492H1.56192ZM40.6254 39.0622C40.2947 39.0622 39.9645 39.0361 39.6379 38.9841L42.3473 26.8025C43.7927 27.2212 45.0386 28.1469 45.8565 29.41C46.6744 30.673 47.0095 32.1886 46.8002 33.6787C46.5909 35.1688 45.8513 36.5335 44.7171 37.5224C43.5829 38.5112 42.1301 39.058 40.6254 39.0622Z" fill="black"/>
<path d="M13.7497 2.49882L13.7404 2.51132L13.6966 2.5707C13.4698 2.88399 13.2571 3.20724 13.0591 3.53947C12.8943 3.80777 12.7471 4.08649 12.6184 4.37387C12.5372 4.56137 12.5122 4.66137 12.5028 4.69575V4.70825C12.5381 4.98469 12.6353 5.2496 12.7872 5.48327C13.0216 5.8989 13.3435 6.33329 13.7497 6.87393L13.781 6.91143C14.1497 7.40519 14.5935 7.99583 14.9373 8.60835C15.2873 9.23336 15.6248 10.0303 15.6248 10.9365C15.6248 11.524 15.4216 12.0866 15.2529 12.4803C15.0694 12.898 14.8586 13.303 14.6216 13.6928C14.3749 14.1017 14.1112 14.5 13.831 14.8866L13.7747 14.9648L13.7591 14.9898L13.7529 14.996C13.5046 15.3279 13.1347 15.5477 12.7244 15.6069C12.3142 15.6661 11.8972 15.5599 11.5653 15.3116C11.2334 15.0634 11.0136 14.6935 10.9544 14.2832C10.8952 13.873 11.0014 13.456 11.2497 13.1241L11.259 13.1116L11.3028 13.0522C11.5296 12.739 11.7424 12.4157 11.9403 12.0834C12.1074 11.8165 12.2547 11.5376 12.3809 11.249C12.4622 11.0615 12.4872 10.9615 12.4966 10.9272C12.464 10.6466 12.3678 10.3773 12.2153 10.1396C11.9227 9.6564 11.6002 9.19194 11.2497 8.74897L11.2184 8.71147C10.7969 8.17128 10.4107 7.60447 10.0621 7.01456C9.63649 6.31056 9.39969 5.50866 9.37462 4.68637C9.37462 4.09886 9.57775 3.53635 9.7465 3.14259C9.93088 2.71133 10.1653 2.28631 10.3778 1.93006C10.6245 1.52121 10.8882 1.12294 11.1684 0.736276L11.2465 0.626899C11.4948 0.294955 11.8647 0.0752174 12.2749 0.0160248C12.6852 -0.0431679 13.1022 0.0630335 13.4341 0.311266C13.766 0.559498 13.9858 0.929427 14.045 1.33967C14.1042 1.74992 13.998 2.16688 13.7497 2.49882ZM23.125 2.49882L23.1156 2.51132L23.0718 2.5707C22.845 2.88399 22.6323 3.20724 22.4343 3.53947C22.2695 3.80777 22.1223 4.08649 21.9937 4.37387C21.9124 4.56137 21.8874 4.66137 21.8781 4.69575V4.70825C21.9134 4.98469 22.0106 5.2496 22.1624 5.48327C22.3968 5.8989 22.7187 6.33329 23.125 6.87393L23.1562 6.91143C23.525 7.40519 23.9687 7.99583 24.3125 8.60835C24.6625 9.23336 25 10.0303 25 10.9365C25 11.524 24.7969 12.0866 24.6281 12.4803C24.4447 12.898 24.2338 13.303 23.9969 13.6928C23.7502 14.1017 23.4864 14.5 23.2062 14.8866L23.15 14.9648L23.1343 14.9898L23.1281 14.996C22.8799 15.3279 22.5099 15.5477 22.0997 15.6069C21.6894 15.6661 21.2725 15.5599 20.9405 15.3116C20.6086 15.0634 20.3888 14.6935 20.3297 14.2832C20.2705 13.873 20.3767 13.456 20.6249 13.1241L20.6343 13.1116L20.678 13.0522C20.9049 12.739 21.1176 12.4157 21.3155 12.0834C21.4826 11.8165 21.6299 11.5376 21.7562 11.249C21.8374 11.0615 21.8624 10.9615 21.8718 10.9272C21.8393 10.6466 21.7431 10.3773 21.5905 10.1396C21.298 9.6564 20.9755 9.19194 20.6249 8.74897L20.5936 8.71147C20.1721 8.17128 19.7859 7.60447 19.4374 7.01456C19.0117 6.31056 18.7749 5.50866 18.7499 4.68637C18.7499 4.09886 18.953 3.53635 19.1217 3.14259C19.3061 2.71133 19.5405 2.28631 19.753 1.93006C19.9997 1.52121 20.2635 1.12294 20.5436 0.736276L20.6218 0.626899C20.87 0.294955 21.2399 0.0752174 21.6502 0.0160248C22.0604 -0.0431679 22.4774 0.0630335 22.8093 0.311266C23.1413 0.559498 23.361 0.929427 23.4202 1.33967C23.4794 1.74992 23.3732 2.16688 23.125 2.49882ZM32.5002 2.49882L32.4908 2.51132L32.4471 2.5707C32.22 2.88378 32.0072 3.20704 31.8096 3.53947C31.6448 3.80781 31.4977 4.08653 31.3689 4.37387C31.2877 4.56137 31.2627 4.66137 31.2533 4.69575V4.70825C31.2886 4.98469 31.3858 5.2496 31.5377 5.48327C31.7721 5.8989 32.0939 6.33329 32.5002 6.87393L32.5314 6.91143C32.9002 7.40519 33.344 7.99583 33.6877 8.60835C34.0377 9.23336 34.3752 10.0303 34.3752 10.9365C34.3752 11.524 34.1721 12.0866 34.0034 12.4803C33.8209 12.8984 33.6099 13.3036 33.3721 13.6928C33.1266 14.1018 32.8639 14.5 32.5846 14.8866L32.5252 14.9648L32.5096 14.9898L32.5033 14.996C32.2551 15.3279 31.8852 15.5477 31.4749 15.6069C31.0647 15.6661 30.6477 15.5599 30.3158 15.3116C29.9838 15.0634 29.7641 14.6935 29.7049 14.2832C29.6457 13.873 29.7519 13.456 30.0001 13.1241L30.0095 13.1116L30.0533 13.0522C30.2801 12.739 30.4928 12.4157 30.6908 12.0834C30.8579 11.8165 31.0051 11.5376 31.1314 11.249C31.2127 11.0615 31.2377 10.9615 31.247 10.9272C31.2145 10.6466 31.1183 10.3773 30.9658 10.1396C30.6732 9.6564 30.3507 9.19194 30.0001 8.74897L29.9689 8.71147C29.5474 8.17128 29.1611 7.60447 28.8126 7.01456C28.387 6.31056 28.1502 5.50866 28.1251 4.68637C28.1251 4.09886 28.3282 3.53635 28.497 3.14259C28.6814 2.71133 28.9157 2.28631 29.1282 1.93006C29.3749 1.52121 29.6387 1.12294 29.9189 0.736276L29.997 0.626899C30.2452 0.294955 30.6152 0.0752174 31.0254 0.0160248C31.4357 -0.0431679 31.8526 0.0630335 32.1846 0.311266C32.5165 0.559498 32.7362 0.929427 32.7954 1.33967C32.8546 1.74992 32.7484 2.16688 32.5002 2.49882Z" fill="black"/>
</svg>
