<svg width="50" height="50" viewBox="0 0 50 50" fill="none" xmlns="http://www.w3.org/2000/svg">
<path d="M2.77779 50C1.99075 50 1.33057 49.7333 0.797232 49.2C0.263899 48.6667 -0.00184224 48.0074 9.61167e-06 47.2222C9.61167e-06 46.4352 0.266676 45.775 0.80001 45.2417C1.33334 44.7083 1.9926 44.4426 2.77779 44.4444H41.6667C42.4537 44.4444 43.1139 44.7111 43.6472 45.2444C44.1805 45.7778 44.4463 46.437 44.4444 47.2222C44.4444 48.0093 44.1778 48.6694 43.6444 49.2028C43.1111 49.7361 42.4519 50.0018 41.6667 50H2.77779ZM38.8889 13.8889H44.4444V5.55556H38.8889V13.8889ZM11.1111 38.8889C8.05556 38.8889 5.43982 37.8009 3.2639 35.625C1.08797 33.4491 9.61167e-06 30.8333 9.61167e-06 27.7778V5.55556C9.61167e-06 4.02778 0.544453 2.71945 1.63334 1.63056C2.72223 0.541671 4.02964 -0.00184714 5.55556 4.71609e-06H13.8889V6.66667L8.8889 10.6944C8.7963 10.787 8.61112 11.1574 8.33334 11.8056V23.6111C8.33334 23.9815 8.47223 24.3056 8.75001 24.5833C9.02779 24.8611 9.35186 25 9.72223 25H20.8333C21.2037 25 21.5278 24.8611 21.8056 24.5833C22.0833 24.3056 22.2222 23.9815 22.2222 23.6111V11.8056C22.2222 11.713 22.037 11.3426 21.6667 10.6944L16.6667 6.66667V4.71609e-06H44.4444C45.9722 4.71609e-06 47.2806 0.543523 48.3694 1.63056C49.4583 2.7176 50.0018 4.02593 50 5.55556V13.8889C50 15.4167 49.4556 16.725 48.3667 17.8139C47.2778 18.9028 45.9704 19.4463 44.4444 19.4444H38.8889V27.7778C38.8889 30.8333 37.8009 33.4491 35.625 35.625C33.4491 37.8009 30.8333 38.8889 27.7778 38.8889H11.1111Z" fill="black"/>
</svg>
