<svg width="24" height="20" viewBox="0 0 24 20" fill="none" xmlns="http://www.w3.org/2000/svg">
<path d="M1.15385 0C0.514423 0 0 0.514423 0 1.15385V3.46154C0 4.10096 0.514423 4.61538 1.15385 4.61538H3.46154C4.10096 4.61538 4.61538 4.10096 4.61538 3.46154V1.15385C4.61538 0.514423 4.10096 0 3.46154 0H1.15385ZM8.46154 0.769231C7.61058 0.769231 6.92308 1.45673 6.92308 2.30769C6.92308 3.15865 7.61058 3.84615 8.46154 3.84615H22.3077C23.1587 3.84615 23.8462 3.15865 23.8462 2.30769C23.8462 1.45673 23.1587 0.769231 22.3077 0.769231H8.46154ZM8.46154 8.46154C7.61058 8.46154 6.92308 9.14904 6.92308 10C6.92308 10.851 7.61058 11.5385 8.46154 11.5385H22.3077C23.1587 11.5385 23.8462 10.851 23.8462 10C23.8462 9.14904 23.1587 8.46154 22.3077 8.46154H8.46154ZM8.46154 16.1538C7.61058 16.1538 6.92308 16.8413 6.92308 17.6923C6.92308 18.5433 7.61058 19.2308 8.46154 19.2308H22.3077C23.1587 19.2308 23.8462 18.5433 23.8462 17.6923C23.8462 16.8413 23.1587 16.1538 22.3077 16.1538H8.46154ZM0 8.84615V11.1538C0 11.7933 0.514423 12.3077 1.15385 12.3077H3.46154C4.10096 12.3077 4.61538 11.7933 4.61538 11.1538V8.84615C4.61538 8.20673 4.10096 7.69231 3.46154 7.69231H1.15385C0.514423 7.69231 0 8.20673 0 8.84615ZM1.15385 15.3846C0.514423 15.3846 0 15.899 0 16.5385V18.8462C0 19.4856 0.514423 20 1.15385 20H3.46154C4.10096 20 4.61538 19.4856 4.61538 18.8462V16.5385C4.61538 15.899 4.10096 15.3846 3.46154 15.3846H1.15385Z" fill="black"/>
</svg>
